<svg id="svg" version="1.1" xmlns="http://www.w3.org/2000/svg" xmlns:xlink="http://www.w3.org/1999/xlink" width="400" height="401.2345679012346" viewBox="0, 0, 400,401.2345679012346">
  <g id="svgg">
    <path id="path0" d="M183.000 67.418 C 181.240 67.705,178.450 67.961,176.800 67.988 C 175.150 68.014,173.080 68.295,172.200 68.612 C 171.320 68.929,169.947 69.191,169.149 69.194 C 168.351 69.197,167.051 69.470,166.262 69.800 C 165.472 70.130,163.992 70.400,162.973 70.400 C 161.954 70.400,160.554 70.643,159.860 70.941 C 158.375 71.578,155.714 72.315,153.200 72.786 C 152.210 72.971,150.950 73.307,150.400 73.533 C 149.850 73.758,147.960 74.399,146.200 74.957 C 141.950 76.305,140.073 76.994,139.741 77.326 C 139.590 77.477,139.201 77.600,138.877 77.600 C 138.553 77.600,137.458 77.986,136.444 78.457 C 134.301 79.453,133.160 79.958,129.601 81.485 C 126.393 82.861,119.612 86.308,118.800 86.975 C 118.470 87.246,117.390 87.877,116.400 88.376 C 115.410 88.876,113.826 89.806,112.880 90.443 C 111.934 91.079,111.084 91.600,110.992 91.600 C 110.899 91.600,109.459 92.545,107.790 93.700 C 106.122 94.855,104.388 96.006,103.936 96.258 C 103.485 96.510,102.305 97.410,101.315 98.258 C 100.325 99.106,99.192 99.980,98.798 100.200 C 98.117 100.580,90.987 107.034,88.819 109.234 C 84.570 113.544,79.749 118.841,78.986 120.036 C 78.483 120.826,77.796 121.747,77.460 122.083 C 76.778 122.764,70.800 131.568,70.800 131.890 C 70.800 132.003,70.193 133.109,69.451 134.348 C 67.043 138.367,66.051 140.320,64.399 144.294 C 63.506 146.442,62.601 148.513,62.388 148.895 C 62.175 149.277,62.000 149.789,62.000 150.034 C 62.000 150.279,61.757 151.046,61.459 151.740 C 61.162 152.433,60.707 153.810,60.449 154.800 C 60.191 155.790,59.715 157.500,59.391 158.600 C 56.325 169.012,55.281 182.953,56.756 193.800 C 57.673 200.542,58.508 205.416,58.812 205.800 C 58.986 206.020,59.254 206.920,59.407 207.800 C 59.560 208.680,60.130 210.660,60.673 212.200 C 61.216 213.740,61.754 215.360,61.870 215.800 C 61.985 216.240,62.332 217.167,62.640 217.860 C 62.948 218.554,63.200 219.274,63.200 219.460 C 63.200 219.769,63.749 220.971,66.370 226.400 C 67.938 229.649,69.783 232.957,71.502 235.600 C 72.432 237.030,73.194 238.394,73.196 238.630 C 73.198 238.867,73.626 239.461,74.148 239.951 C 74.669 240.441,75.794 241.862,76.648 243.111 C 77.501 244.359,78.470 245.676,78.800 246.038 C 81.153 248.618,81.600 249.171,81.600 249.502 C 81.600 249.708,84.255 252.543,87.500 255.803 C 92.767 261.094,95.256 263.351,99.055 266.283 C 99.685 266.769,100.830 267.721,101.600 268.398 C 102.370 269.075,103.900 270.169,105.000 270.828 C 106.100 271.488,108.405 273.011,110.123 274.214 C 111.840 275.416,113.400 276.400,113.588 276.400 C 113.776 276.400,114.836 276.996,115.942 277.725 C 117.726 278.900,128.273 284.258,132.000 285.883 C 132.770 286.218,133.878 286.742,134.462 287.046 C 135.046 287.351,135.861 287.600,136.273 287.600 C 136.685 287.600,137.377 287.838,137.811 288.129 C 138.245 288.419,139.770 289.043,141.200 289.513 C 142.630 289.984,145.060 290.813,146.600 291.356 C 148.140 291.898,150.120 292.468,151.000 292.623 C 151.880 292.778,152.780 293.040,153.000 293.206 C 153.220 293.372,154.030 293.629,154.800 293.777 C 155.570 293.925,156.560 294.208,157.000 294.406 C 157.440 294.603,158.880 294.939,160.200 295.152 C 161.520 295.364,164.760 295.996,167.400 296.556 C 170.040 297.116,172.904 297.579,173.765 297.587 C 175.481 297.601,179.192 298.573,180.862 299.445 C 181.446 299.750,182.228 300.000,182.600 300.000 C 183.647 300.000,185.650 301.245,187.273 302.903 C 190.119 305.813,190.622 310.987,189.052 321.200 C 188.731 323.290,188.268 326.397,188.022 328.105 C 187.777 329.813,187.402 331.670,187.188 332.231 C 186.039 335.254,187.392 338.952,189.877 339.578 C 191.818 340.066,196.652 339.543,198.600 338.633 C 202.313 336.899,206.175 334.942,209.000 333.364 C 210.760 332.380,212.740 331.305,213.400 330.975 C 214.060 330.645,215.140 330.023,215.800 329.593 C 216.460 329.163,217.360 328.627,217.800 328.400 C 218.240 328.173,219.079 327.676,219.665 327.294 C 220.621 326.671,226.223 323.215,227.926 322.197 C 230.408 320.715,243.229 312.145,249.200 307.978 C 251.070 306.673,253.770 304.791,255.200 303.796 C 256.630 302.801,258.880 301.181,260.200 300.197 C 261.520 299.213,263.050 298.097,263.600 297.716 C 265.374 296.490,272.498 291.100,273.218 290.440 C 273.602 290.088,275.225 288.810,276.824 287.600 C 278.424 286.390,280.479 284.770,281.391 284.000 C 282.303 283.230,284.017 281.790,285.200 280.800 C 288.431 278.097,293.632 273.625,294.179 273.080 C 294.445 272.816,296.419 270.980,298.567 269.000 C 304.592 263.447,305.016 263.017,311.202 256.197 C 316.869 249.949,320.843 245.218,322.792 242.400 C 323.324 241.630,323.994 240.856,324.280 240.680 C 324.566 240.504,324.800 240.119,324.800 239.824 C 324.800 239.529,325.572 238.233,326.516 236.944 C 327.460 235.655,328.592 233.880,329.031 233.000 C 329.471 232.120,330.288 230.680,330.847 229.800 C 332.691 226.900,337.200 217.322,337.200 216.306 C 337.200 215.991,337.316 215.617,337.459 215.475 C 337.778 215.155,339.120 211.494,339.611 209.600 C 340.609 205.754,341.309 202.808,341.655 201.000 C 341.866 199.900,342.234 198.010,342.473 196.800 C 343.129 193.480,343.375 176.277,342.814 172.961 C 342.557 171.442,342.184 168.616,341.984 166.680 C 341.785 164.744,341.507 162.974,341.367 162.746 C 341.132 162.367,340.611 160.283,339.590 155.643 C 339.377 154.676,339.046 153.686,338.854 153.443 C 338.663 153.199,338.116 151.830,337.639 150.400 C 337.162 148.970,336.522 147.260,336.216 146.600 C 335.910 145.940,335.360 144.680,334.994 143.800 C 333.769 140.852,330.623 134.751,330.109 134.324 C 329.829 134.092,329.600 133.681,329.600 133.411 C 329.600 133.141,329.060 132.175,328.400 131.263 C 327.740 130.352,327.200 129.496,327.200 129.361 C 327.200 129.226,326.660 128.433,326.000 127.600 C 325.340 126.767,324.800 125.964,324.800 125.816 C 324.800 125.322,319.873 119.028,318.368 117.600 C 318.020 117.270,317.561 116.682,317.348 116.292 C 315.772 113.419,301.654 100.515,295.584 96.400 C 294.449 95.630,292.952 94.525,292.258 93.945 C 291.564 93.364,290.231 92.491,289.296 92.003 C 288.361 91.516,287.495 90.953,287.371 90.753 C 287.247 90.552,286.393 90.007,285.473 89.541 C 284.553 89.074,283.710 88.582,283.600 88.446 C 283.411 88.213,282.478 87.720,275.800 84.319 C 273.007 82.896,268.474 80.779,266.200 79.834 C 265.540 79.560,264.370 79.049,263.600 78.699 C 262.830 78.348,261.070 77.687,259.690 77.228 C 258.309 76.769,256.869 76.243,256.490 76.058 C 255.186 75.422,250.597 73.895,248.200 73.300 C 243.692 72.180,241.400 71.574,240.062 71.147 C 239.326 70.913,237.796 70.578,236.662 70.404 C 233.730 69.955,230.097 69.253,228.000 68.731 C 227.010 68.485,224.400 68.140,222.200 67.965 C 220.000 67.790,216.760 67.465,215.000 67.245 C 210.276 66.652,186.920 66.778,183.000 67.418 M117.325 151.971 C 119.145 152.663,119.200 153.450,119.200 178.831 C 119.200 200.036,119.271 202.814,119.829 203.371 C 120.374 203.917,122.172 204.000,133.448 204.000 C 147.443 204.000,148.413 204.131,149.170 206.122 C 149.723 207.576,149.178 218.053,148.495 219.100 L 147.908 220.000 126.430 220.000 C 108.514 220.000,104.824 219.906,104.176 219.432 C 103.277 218.775,102.716 154.452,103.595 152.810 C 104.066 151.930,105.198 151.774,111.874 151.670 C 114.335 151.631,116.788 151.767,117.325 151.971 M171.567 151.853 C 173.913 152.323,173.861 151.536,173.829 186.000 C 173.802 215.291,173.752 217.487,173.090 218.700 L 172.379 220.000 165.890 219.994 C 162.320 219.991,159.202 219.856,158.960 219.694 C 157.641 218.813,157.600 217.784,157.600 185.715 C 157.600 150.774,157.499 152.251,159.904 151.886 C 161.741 151.607,170.218 151.584,171.567 151.853 M199.373 153.800 C 200.358 154.900,201.172 155.947,201.182 156.127 C 201.192 156.307,202.325 157.875,203.700 159.611 C 205.075 161.347,206.830 163.684,207.600 164.804 C 208.370 165.925,209.450 167.454,210.000 168.202 C 210.550 168.949,211.540 170.319,212.200 171.244 C 212.860 172.170,214.075 173.720,214.900 174.688 C 215.725 175.656,216.400 176.693,216.400 176.991 C 216.400 177.289,216.556 177.593,216.746 177.667 C 216.937 177.740,218.633 179.870,220.516 182.400 C 225.034 188.472,226.461 189.950,226.835 188.943 C 226.987 188.534,227.137 180.370,227.169 170.800 C 227.240 149.537,226.278 151.800,235.245 151.800 C 241.514 151.800,241.688 151.823,242.435 152.744 C 243.682 154.284,243.624 217.082,242.373 218.838 L 241.546 220.000 234.996 220.000 L 228.447 220.000 226.723 217.696 C 225.776 216.429,224.640 214.905,224.200 214.310 C 223.760 213.715,222.275 211.781,220.900 210.012 C 219.525 208.243,218.400 206.701,218.400 206.586 C 218.400 206.371,206.948 191.013,204.786 188.327 C 204.134 187.517,203.600 186.733,203.600 186.584 C 203.600 186.170,201.159 183.084,200.228 182.322 C 198.898 181.232,198.858 181.758,198.828 200.871 C 198.794 222.393,199.780 220.000,190.951 220.000 L 184.359 220.000 183.766 218.579 C 183.022 216.799,182.902 155.375,183.638 153.264 C 184.166 151.748,184.556 151.676,191.891 151.746 L 197.583 151.800 199.373 153.800 M297.958 152.562 C 298.746 153.275,298.800 153.728,298.800 159.635 L 298.800 165.946 297.500 166.873 C 296.204 167.797,296.163 167.800,283.000 167.800 C 267.198 167.800,268.400 167.432,268.400 172.269 C 268.400 178.131,266.992 177.600,282.521 177.600 L 295.814 177.600 297.307 178.614 L 298.800 179.629 298.800 185.756 C 298.800 191.705,298.772 191.914,297.819 192.942 L 296.838 194.000 283.033 194.000 C 266.911 194.000,268.400 193.455,268.400 199.360 C 268.400 204.360,267.255 204.000,283.143 204.000 L 296.339 204.000 297.569 205.036 L 298.800 206.071 298.800 212.110 C 298.800 217.759,298.744 218.208,297.930 219.074 L 297.061 220.000 275.630 219.994 C 262.830 219.990,253.958 219.835,253.600 219.609 C 252.861 219.142,252.288 156.080,253.000 153.617 C 253.575 151.627,253.226 151.656,276.258 151.731 C 296.156 151.797,297.155 151.835,297.958 152.562 " stroke="none" fill="#d9d9d9" fill-rule="evenodd"></path>
    <path id="path1" d="M60.000 2.600 C 60.000 3.044,59.533 3.200,58.200 3.200 C 56.867 3.200,56.400 3.356,56.400 3.800 C 56.400 4.253,55.911 4.400,54.400 4.400 C 52.889 4.400,52.400 4.547,52.400 5.000 C 52.400 5.444,51.933 5.600,50.600 5.600 C 49.267 5.600,48.800 5.756,48.800 6.200 C 48.800 6.644,48.333 6.800,47.000 6.800 C 45.667 6.800,45.200 6.956,45.200 7.400 C 45.200 7.800,44.800 8.000,44.000 8.000 C 43.200 8.000,42.800 8.200,42.800 8.600 C 42.800 9.000,42.400 9.200,41.600 9.200 C 40.800 9.200,40.400 9.400,40.400 9.800 C 40.400 10.204,39.996 10.400,39.163 10.400 C 38.262 10.400,37.868 10.617,37.716 11.200 C 37.601 11.640,37.258 12.000,36.953 12.000 C 36.649 12.000,36.400 12.270,36.400 12.600 C 36.400 13.000,36.000 13.200,35.200 13.200 C 34.400 13.200,34.000 13.400,34.000 13.800 C 34.000 14.130,33.730 14.400,33.400 14.400 C 33.070 14.400,32.800 14.670,32.800 15.000 C 32.800 15.400,32.400 15.600,31.600 15.600 C 30.800 15.600,30.400 15.800,30.400 16.200 C 30.400 16.530,30.130 16.800,29.800 16.800 C 29.470 16.800,29.200 17.070,29.200 17.400 C 29.200 17.730,28.930 18.000,28.600 18.000 C 28.270 18.000,28.000 18.270,28.000 18.600 C 28.000 18.930,27.730 19.200,27.400 19.200 C 27.070 19.200,26.800 19.470,26.800 19.800 C 26.800 20.133,26.444 20.400,26.000 20.400 C 25.556 20.400,25.200 20.667,25.200 21.000 C 25.200 21.400,24.800 21.600,24.000 21.600 C 23.200 21.600,22.800 21.800,22.800 22.200 C 22.800 22.530,22.530 22.800,22.200 22.800 C 21.870 22.800,21.600 23.070,21.600 23.400 C 21.600 23.730,21.330 24.000,21.000 24.000 C 20.581 24.000,20.400 24.422,20.400 25.400 C 20.400 26.378,20.219 26.800,19.800 26.800 C 19.470 26.800,19.200 27.070,19.200 27.400 C 19.200 27.730,18.930 28.000,18.600 28.000 C 18.270 28.000,18.000 28.270,18.000 28.600 C 18.000 28.930,17.730 29.200,17.400 29.200 C 17.070 29.200,16.800 29.470,16.800 29.800 C 16.800 30.130,16.530 30.400,16.200 30.400 C 15.870 30.400,15.600 30.670,15.600 31.000 C 15.600 31.330,15.330 31.600,15.000 31.600 C 14.600 31.600,14.400 32.000,14.400 32.800 C 14.400 33.600,14.200 34.000,13.800 34.000 C 13.400 34.000,13.200 34.400,13.200 35.200 C 13.200 36.000,13.000 36.400,12.600 36.400 C 12.270 36.400,12.000 36.649,12.000 36.953 C 12.000 37.258,11.640 37.601,11.200 37.716 C 10.671 37.854,10.400 38.262,10.400 38.920 C 10.400 39.467,10.130 40.018,9.800 40.145 C 9.449 40.279,9.200 40.879,9.200 41.587 C 9.200 42.399,9.001 42.800,8.600 42.800 C 8.200 42.800,8.000 43.200,8.000 44.000 C 8.000 44.800,7.800 45.200,7.400 45.200 C 7.000 45.200,6.800 45.600,6.800 46.400 C 6.800 47.200,6.600 47.600,6.200 47.600 C 5.733 47.600,5.600 48.133,5.600 50.000 C 5.600 51.867,5.467 52.400,5.000 52.400 C 4.581 52.400,4.400 52.822,4.400 53.800 C 4.400 54.778,4.219 55.200,3.800 55.200 C 3.333 55.200,3.200 55.733,3.200 57.600 C 3.200 59.467,3.067 60.000,2.600 60.000 C 2.068 60.000,2.000 75.889,2.000 200.600 C 2.000 325.311,2.068 341.200,2.600 341.200 C 3.053 341.200,3.200 341.689,3.200 343.200 C 3.200 344.711,3.347 345.200,3.800 345.200 C 4.244 345.200,4.400 345.667,4.400 347.000 C 4.400 348.333,4.556 348.800,5.000 348.800 C 5.444 348.800,5.600 349.267,5.600 350.600 C 5.600 351.933,5.756 352.400,6.200 352.400 C 6.600 352.400,6.800 352.800,6.800 353.600 C 6.800 354.400,7.000 354.800,7.400 354.800 C 7.853 354.800,8.000 355.289,8.000 356.800 C 8.000 358.311,8.147 358.800,8.600 358.800 C 9.000 358.800,9.200 359.200,9.200 360.000 C 9.200 360.800,9.400 361.200,9.800 361.200 C 10.200 361.200,10.400 361.600,10.400 362.400 C 10.400 363.333,10.578 363.600,11.200 363.600 C 11.644 363.600,12.000 363.867,12.000 364.200 C 12.000 364.530,12.270 364.800,12.600 364.800 C 13.000 364.800,13.200 365.200,13.200 366.000 C 13.200 366.800,13.400 367.200,13.800 367.200 C 14.130 367.200,14.400 367.470,14.400 367.800 C 14.400 368.130,14.670 368.400,15.000 368.400 C 15.330 368.400,15.600 368.670,15.600 369.000 C 15.600 369.330,15.870 369.600,16.200 369.600 C 16.600 369.600,16.800 370.000,16.800 370.800 C 16.800 371.600,17.000 372.000,17.400 372.000 C 17.733 372.000,18.000 372.356,18.000 372.800 C 18.000 373.244,18.267 373.600,18.600 373.600 C 18.930 373.600,19.200 373.870,19.200 374.200 C 19.200 374.530,19.470 374.800,19.800 374.800 C 20.130 374.800,20.400 375.070,20.400 375.400 C 20.400 375.730,20.670 376.000,21.000 376.000 C 21.330 376.000,21.600 376.270,21.600 376.600 C 21.600 376.930,21.870 377.200,22.200 377.200 C 22.530 377.200,22.800 377.470,22.800 377.800 C 22.800 378.130,23.070 378.400,23.400 378.400 C 23.730 378.400,24.000 378.670,24.000 379.000 C 24.000 379.330,24.270 379.600,24.600 379.600 C 24.930 379.600,25.200 379.870,25.200 380.200 C 25.200 380.533,25.556 380.800,26.000 380.800 C 26.444 380.800,26.800 381.067,26.800 381.400 C 26.800 381.730,27.070 382.000,27.400 382.000 C 27.730 382.000,28.000 382.270,28.000 382.600 C 28.000 382.930,28.270 383.200,28.600 383.200 C 28.930 383.200,29.200 383.470,29.200 383.800 C 29.200 384.200,29.600 384.400,30.400 384.400 C 31.200 384.400,31.600 384.600,31.600 385.000 C 31.600 385.330,31.870 385.600,32.200 385.600 C 32.533 385.600,32.800 385.956,32.800 386.400 C 32.800 387.022,33.067 387.200,34.000 387.200 C 34.800 387.200,35.200 387.400,35.200 387.800 C 35.200 388.130,35.470 388.400,35.800 388.400 C 36.130 388.400,36.400 388.670,36.400 389.000 C 36.400 389.400,36.800 389.600,37.600 389.600 C 38.400 389.600,38.800 389.800,38.800 390.200 C 38.800 390.619,39.222 390.800,40.200 390.800 C 41.178 390.800,41.600 390.981,41.600 391.400 C 41.600 391.800,42.000 392.000,42.800 392.000 C 43.600 392.000,44.000 392.200,44.000 392.600 C 44.000 393.000,44.400 393.200,45.200 393.200 C 46.000 393.200,46.400 393.400,46.400 393.800 C 46.400 394.200,46.800 394.400,47.600 394.400 C 48.400 394.400,48.800 394.600,48.800 395.000 C 48.800 395.467,49.333 395.600,51.200 395.600 C 53.067 395.600,53.600 395.733,53.600 396.200 C 53.600 396.653,54.089 396.800,55.600 396.800 C 57.111 396.800,57.600 396.947,57.600 397.400 C 57.600 397.867,58.133 398.000,60.000 398.000 C 61.867 398.000,62.400 398.133,62.400 398.600 C 62.400 399.132,78.022 399.200,200.600 399.200 C 323.178 399.200,338.800 399.132,338.800 398.600 C 338.800 398.156,339.267 398.000,340.600 398.000 C 341.933 398.000,342.400 397.844,342.400 397.400 C 342.400 396.928,342.956 396.800,345.000 396.800 C 347.044 396.800,347.600 396.672,347.600 396.200 C 347.600 395.756,348.067 395.600,349.400 395.600 C 350.733 395.600,351.200 395.444,351.200 395.000 C 351.200 394.600,351.600 394.400,352.400 394.400 C 353.200 394.400,353.600 394.200,353.600 393.800 C 353.600 393.347,354.089 393.200,355.600 393.200 C 357.111 393.200,357.600 393.053,357.600 392.600 C 357.600 392.200,358.000 392.000,358.800 392.000 C 359.600 392.000,360.000 391.800,360.000 391.400 C 360.000 391.000,360.400 390.800,361.200 390.800 C 362.000 390.800,362.400 390.600,362.400 390.200 C 362.400 389.870,362.670 389.600,363.000 389.600 C 363.330 389.600,363.600 389.330,363.600 389.000 C 363.600 388.600,364.000 388.400,364.800 388.400 C 365.600 388.400,366.000 388.200,366.000 387.800 C 366.000 387.470,366.270 387.200,366.600 387.200 C 366.933 387.200,367.200 386.844,367.200 386.400 C 367.200 385.778,367.467 385.600,368.400 385.600 C 369.200 385.600,369.600 385.400,369.600 385.000 C 369.600 384.670,369.870 384.400,370.200 384.400 C 370.530 384.400,370.800 384.130,370.800 383.800 C 370.800 383.467,371.156 383.200,371.600 383.200 C 372.044 383.200,372.400 382.933,372.400 382.600 C 372.400 382.200,372.800 382.000,373.600 382.000 C 374.400 382.000,374.800 381.800,374.800 381.400 C 374.800 381.070,375.070 380.800,375.400 380.800 C 375.730 380.800,376.000 380.530,376.000 380.200 C 376.000 379.870,376.270 379.600,376.600 379.600 C 376.930 379.600,377.200 379.330,377.200 379.000 C 377.200 378.670,377.470 378.400,377.800 378.400 C 378.130 378.400,378.400 378.130,378.400 377.800 C 378.400 377.470,378.670 377.200,379.000 377.200 C 379.330 377.200,379.600 376.930,379.600 376.600 C 379.600 376.270,379.870 376.000,380.200 376.000 C 380.530 376.000,380.800 375.730,380.800 375.400 C 380.800 375.070,381.070 374.800,381.400 374.800 C 381.819 374.800,382.000 374.378,382.000 373.400 C 382.000 372.422,382.181 372.000,382.600 372.000 C 382.930 372.000,383.200 371.730,383.200 371.400 C 383.200 371.070,383.470 370.800,383.800 370.800 C 384.130 370.800,384.400 370.530,384.400 370.200 C 384.400 369.867,384.756 369.600,385.200 369.600 C 385.644 369.600,386.000 369.333,386.000 369.000 C 386.000 368.670,386.270 368.400,386.600 368.400 C 387.000 368.400,387.200 368.000,387.200 367.200 C 387.200 366.400,387.400 366.000,387.800 366.000 C 388.130 366.000,388.400 365.730,388.400 365.400 C 388.400 365.070,388.670 364.800,389.000 364.800 C 389.400 364.800,389.600 364.400,389.600 363.600 C 389.600 362.800,389.800 362.400,390.200 362.400 C 390.600 362.400,390.800 362.000,390.800 361.200 C 390.800 360.400,391.000 360.000,391.400 360.000 C 391.819 360.000,392.000 359.578,392.000 358.600 C 392.000 357.622,392.181 357.200,392.600 357.200 C 393.044 357.200,393.200 356.733,393.200 355.400 C 393.200 354.067,393.356 353.600,393.800 353.600 C 394.200 353.600,394.400 353.200,394.400 352.400 C 394.400 351.600,394.600 351.200,395.000 351.200 C 395.444 351.200,395.600 350.733,395.600 349.400 C 395.600 348.067,395.756 347.600,396.200 347.600 C 396.653 347.600,396.800 347.111,396.800 345.600 C 396.800 344.089,396.947 343.600,397.400 343.600 C 397.867 343.600,398.000 343.067,398.000 341.200 C 398.000 339.333,398.133 338.800,398.600 338.800 C 399.132 338.800,399.200 323.178,399.200 200.600 C 399.200 78.022,399.132 62.400,398.600 62.400 C 398.133 62.400,398.000 61.867,398.000 60.000 C 398.000 58.133,397.867 57.600,397.400 57.600 C 396.947 57.600,396.800 57.111,396.800 55.600 C 396.800 54.089,396.653 53.600,396.200 53.600 C 395.756 53.600,395.600 53.133,395.600 51.800 C 395.600 50.467,395.444 50.000,395.000 50.000 C 394.556 50.000,394.400 49.533,394.400 48.200 C 394.400 46.867,394.244 46.400,393.800 46.400 C 393.400 46.400,393.200 46.000,393.200 45.200 C 393.200 44.400,393.000 44.000,392.600 44.000 C 392.200 44.000,392.000 43.600,392.000 42.800 C 392.000 42.000,391.800 41.600,391.400 41.600 C 390.981 41.600,390.800 41.178,390.800 40.200 C 390.800 39.222,390.619 38.800,390.200 38.800 C 389.800 38.800,389.600 38.400,389.600 37.600 C 389.600 36.800,389.400 36.400,389.000 36.400 C 388.670 36.400,388.400 36.130,388.400 35.800 C 388.400 35.470,388.130 35.200,387.800 35.200 C 387.400 35.200,387.200 34.800,387.200 34.000 C 387.200 33.200,387.000 32.800,386.600 32.800 C 386.270 32.800,386.000 32.530,386.000 32.200 C 386.000 31.867,385.644 31.600,385.200 31.600 C 384.578 31.600,384.400 31.333,384.400 30.400 C 384.400 29.600,384.200 29.200,383.800 29.200 C 383.470 29.200,383.200 28.930,383.200 28.600 C 383.200 28.270,382.930 28.000,382.600 28.000 C 382.270 28.000,382.000 27.730,382.000 27.400 C 382.000 27.070,381.730 26.800,381.400 26.800 C 381.067 26.800,380.800 26.444,380.800 26.000 C 380.800 25.556,380.533 25.200,380.200 25.200 C 379.870 25.200,379.600 24.930,379.600 24.600 C 379.600 24.270,379.330 24.000,379.000 24.000 C 378.670 24.000,378.400 23.730,378.400 23.400 C 378.400 23.070,378.130 22.800,377.800 22.800 C 377.470 22.800,377.200 22.530,377.200 22.200 C 377.200 21.870,376.930 21.600,376.600 21.600 C 376.270 21.600,376.000 21.330,376.000 21.000 C 376.000 20.670,375.730 20.400,375.400 20.400 C 375.070 20.400,374.800 20.130,374.800 19.800 C 374.800 19.470,374.530 19.200,374.200 19.200 C 373.870 19.200,373.600 18.930,373.600 18.600 C 373.600 18.270,373.330 18.000,373.000 18.000 C 372.670 18.000,372.400 17.730,372.400 17.400 C 372.400 16.981,371.978 16.800,371.000 16.800 C 370.022 16.800,369.600 16.619,369.600 16.200 C 369.600 15.870,369.330 15.600,369.000 15.600 C 368.670 15.600,368.400 15.330,368.400 15.000 C 368.400 14.670,368.130 14.400,367.800 14.400 C 367.470 14.400,367.200 14.130,367.200 13.800 C 367.200 13.400,366.800 13.200,366.000 13.200 C 365.200 13.200,364.800 13.000,364.800 12.600 C 364.800 12.200,364.400 12.000,363.600 12.000 C 362.667 12.000,362.400 11.822,362.400 11.200 C 362.400 10.756,362.133 10.400,361.800 10.400 C 361.470 10.400,361.200 10.130,361.200 9.800 C 361.200 9.400,360.800 9.200,360.000 9.200 C 359.200 9.200,358.800 9.000,358.800 8.600 C 358.800 8.147,358.311 8.000,356.800 8.000 C 355.289 8.000,354.800 7.853,354.800 7.400 C 354.800 7.000,354.400 6.800,353.600 6.800 C 352.800 6.800,352.400 6.600,352.400 6.200 C 352.400 5.756,351.933 5.600,350.600 5.600 C 349.267 5.600,348.800 5.444,348.800 5.000 C 348.800 4.556,348.333 4.400,347.000 4.400 C 345.667 4.400,345.200 4.244,345.200 3.800 C 345.200 3.347,344.711 3.200,343.200 3.200 C 341.689 3.200,341.200 3.053,341.200 2.600 C 341.200 2.068,325.311 2.000,200.600 2.000 C 75.889 2.000,60.000 2.068,60.000 2.600 M215.000 67.245 C 216.760 67.465,220.000 67.790,222.200 67.965 C 224.400 68.140,227.010 68.485,228.000 68.731 C 230.097 69.253,233.730 69.955,236.662 70.404 C 237.796 70.578,239.326 70.913,240.062 71.147 C 241.400 71.574,243.692 72.180,248.200 73.300 C 250.597 73.895,255.186 75.422,256.490 76.058 C 256.869 76.243,258.309 76.769,259.690 77.228 C 261.070 77.687,262.830 78.348,263.600 78.699 C 264.370 79.049,265.540 79.560,266.200 79.834 C 268.474 80.779,273.007 82.896,275.800 84.319 C 282.478 87.720,283.411 88.213,283.600 88.446 C 283.710 88.582,284.553 89.074,285.473 89.541 C 286.393 90.007,287.247 90.552,287.371 90.753 C 287.495 90.953,288.361 91.516,289.296 92.003 C 290.231 92.491,291.564 93.364,292.258 93.945 C 292.952 94.525,294.449 95.630,295.584 96.400 C 301.654 100.515,315.772 113.419,317.348 116.292 C 317.561 116.682,318.020 117.270,318.368 117.600 C 319.873 119.028,324.800 125.322,324.800 125.816 C 324.800 125.964,325.340 126.767,326.000 127.600 C 326.660 128.433,327.200 129.226,327.200 129.361 C 327.200 129.496,327.740 130.352,328.400 131.263 C 329.060 132.175,329.600 133.141,329.600 133.411 C 329.600 133.681,329.829 134.092,330.109 134.324 C 330.623 134.751,333.769 140.852,334.994 143.800 C 335.360 144.680,335.910 145.940,336.216 146.600 C 336.522 147.260,337.162 148.970,337.639 150.400 C 338.116 151.830,338.663 153.199,338.854 153.443 C 339.046 153.686,339.377 154.676,339.590 155.643 C 340.611 160.283,341.132 162.367,341.367 162.746 C 341.507 162.974,341.785 164.744,341.984 166.680 C 342.184 168.616,342.557 171.442,342.814 172.961 C 343.375 176.277,343.129 193.480,342.473 196.800 C 342.234 198.010,341.866 199.900,341.655 201.000 C 341.309 202.808,340.609 205.754,339.611 209.600 C 339.120 211.494,337.778 215.155,337.459 215.475 C 337.316 215.617,337.200 215.991,337.200 216.306 C 337.200 217.322,332.691 226.900,330.847 229.800 C 330.288 230.680,329.471 232.120,329.031 233.000 C 328.592 233.880,327.460 235.655,326.516 236.944 C 325.572 238.233,324.800 239.529,324.800 239.824 C 324.800 240.119,324.566 240.504,324.280 240.680 C 323.994 240.856,323.324 241.630,322.792 242.400 C 320.843 245.218,316.869 249.949,311.202 256.197 C 305.016 263.017,304.592 263.447,298.567 269.000 C 296.419 270.980,294.445 272.816,294.179 273.080 C 293.632 273.625,288.431 278.097,285.200 280.800 C 284.017 281.790,282.303 283.230,281.391 284.000 C 280.479 284.770,278.424 286.390,276.824 287.600 C 275.225 288.810,273.602 290.088,273.218 290.440 C 272.498 291.100,265.374 296.490,263.600 297.716 C 263.050 298.097,261.520 299.213,260.200 300.197 C 258.880 301.181,256.630 302.801,255.200 303.796 C 253.770 304.791,251.070 306.673,249.200 307.978 C 243.229 312.145,230.408 320.715,227.926 322.197 C 226.223 323.215,220.621 326.671,219.665 327.294 C 219.079 327.676,218.240 328.173,217.800 328.400 C 217.360 328.627,216.460 329.163,215.800 329.593 C 215.140 330.023,214.060 330.645,213.400 330.975 C 212.740 331.305,210.760 332.380,209.000 333.364 C 206.175 334.942,202.313 336.899,198.600 338.633 C 196.652 339.543,191.818 340.066,189.877 339.578 C 187.392 338.952,186.039 335.254,187.188 332.231 C 187.402 331.670,187.777 329.813,188.022 328.105 C 188.268 326.397,188.731 323.290,189.052 321.200 C 190.622 310.987,190.119 305.813,187.273 302.903 C 185.650 301.245,183.647 300.000,182.600 300.000 C 182.228 300.000,181.446 299.750,180.862 299.445 C 179.192 298.573,175.481 297.601,173.765 297.587 C 172.904 297.579,170.040 297.116,167.400 296.556 C 164.760 295.996,161.520 295.364,160.200 295.152 C 158.880 294.939,157.440 294.603,157.000 294.406 C 156.560 294.208,155.570 293.925,154.800 293.777 C 154.030 293.629,153.220 293.372,153.000 293.206 C 152.780 293.040,151.880 292.778,151.000 292.623 C 150.120 292.468,148.140 291.898,146.600 291.356 C 145.060 290.813,142.630 289.984,141.200 289.513 C 139.770 289.043,138.245 288.419,137.811 288.129 C 137.377 287.838,136.685 287.600,136.273 287.600 C 135.861 287.600,135.046 287.351,134.462 287.046 C 133.878 286.742,132.770 286.218,132.000 285.883 C 128.273 284.258,117.726 278.900,115.942 277.725 C 114.836 276.996,113.776 276.400,113.588 276.400 C 113.400 276.400,111.840 275.416,110.123 274.214 C 108.405 273.011,106.100 271.488,105.000 270.828 C 103.900 270.169,102.370 269.075,101.600 268.398 C 100.830 267.721,99.685 266.769,99.055 266.283 C 95.256 263.351,92.767 261.094,87.500 255.803 C 84.255 252.543,81.600 249.708,81.600 249.502 C 81.600 249.171,81.153 248.618,78.800 246.038 C 78.470 245.676,77.501 244.359,76.648 243.111 C 75.794 241.862,74.669 240.441,74.148 239.951 C 73.626 239.461,73.198 238.867,73.196 238.630 C 73.194 238.394,72.432 237.030,71.502 235.600 C 69.783 232.957,67.938 229.649,66.370 226.400 C 63.749 220.971,63.200 219.769,63.200 219.460 C 63.200 219.274,62.948 218.554,62.640 217.860 C 62.332 217.167,61.985 216.240,61.870 215.800 C 61.754 215.360,61.216 213.740,60.673 212.200 C 60.130 210.660,59.560 208.680,59.407 207.800 C 59.254 206.920,58.986 206.020,58.812 205.800 C 58.508 205.416,57.673 200.542,56.756 193.800 C 55.281 182.953,56.325 169.012,59.391 158.600 C 59.715 157.500,60.191 155.790,60.449 154.800 C 60.707 153.810,61.162 152.433,61.459 151.740 C 61.757 151.046,62.000 150.279,62.000 150.034 C 62.000 149.789,62.175 149.277,62.388 148.895 C 62.601 148.513,63.506 146.442,64.399 144.294 C 66.051 140.320,67.043 138.367,69.451 134.348 C 70.193 133.109,70.800 132.003,70.800 131.890 C 70.800 131.568,76.778 122.764,77.460 122.083 C 77.796 121.747,78.483 120.826,78.986 120.036 C 79.749 118.841,84.570 113.544,88.819 109.234 C 90.987 107.034,98.117 100.580,98.798 100.200 C 99.192 99.980,100.325 99.106,101.315 98.258 C 102.305 97.410,103.485 96.510,103.936 96.258 C 104.388 96.006,106.122 94.855,107.790 93.700 C 109.459 92.545,110.899 91.600,110.992 91.600 C 111.084 91.600,111.934 91.079,112.880 90.443 C 113.826 89.806,115.410 88.876,116.400 88.376 C 117.390 87.877,118.470 87.246,118.800 86.975 C 119.612 86.308,126.393 82.861,129.601 81.485 C 133.160 79.958,134.301 79.453,136.444 78.457 C 137.458 77.986,138.553 77.600,138.877 77.600 C 139.201 77.600,139.590 77.477,139.741 77.326 C 140.073 76.994,141.950 76.305,146.200 74.957 C 147.960 74.399,149.850 73.758,150.400 73.533 C 150.950 73.307,152.210 72.971,153.200 72.786 C 155.714 72.315,158.375 71.578,159.860 70.941 C 160.554 70.643,161.954 70.400,162.973 70.400 C 163.992 70.400,165.472 70.130,166.262 69.800 C 167.051 69.470,168.351 69.197,169.149 69.194 C 169.947 69.191,171.320 68.929,172.200 68.612 C 173.080 68.295,175.150 68.014,176.800 67.988 C 178.450 67.961,181.240 67.705,183.000 67.418 C 186.920 66.778,210.276 66.652,215.000 67.245 M105.702 151.893 C 104.547 151.997,103.873 152.290,103.595 152.810 C 102.716 154.452,103.277 218.775,104.176 219.432 C 104.824 219.906,108.514 220.000,126.430 220.000 L 147.908 220.000 148.495 219.100 C 149.178 218.053,149.723 207.576,149.170 206.122 C 148.413 204.131,147.443 204.000,133.448 204.000 C 122.172 204.000,120.374 203.917,119.829 203.371 C 119.271 202.814,119.200 200.036,119.200 178.831 C 119.200 153.450,119.145 152.663,117.325 151.971 C 116.393 151.617,109.296 151.569,105.702 151.893 M159.904 151.886 C 157.499 152.251,157.600 150.774,157.600 185.715 C 157.600 217.784,157.641 218.813,158.960 219.694 C 159.202 219.856,162.320 219.991,165.890 219.994 L 172.379 220.000 173.090 218.700 C 174.019 216.999,174.260 155.577,173.346 153.353 C 172.671 151.711,165.918 150.974,159.904 151.886 M185.131 151.870 C 184.377 151.995,183.937 152.406,183.638 153.264 C 182.902 155.375,183.022 216.799,183.766 218.579 L 184.359 220.000 190.951 220.000 C 199.780 220.000,198.794 222.393,198.828 200.871 C 198.858 181.758,198.898 181.232,200.228 182.322 C 201.159 183.084,203.600 186.170,203.600 186.584 C 203.600 186.733,204.134 187.517,204.786 188.327 C 206.948 191.013,218.400 206.371,218.400 206.586 C 218.400 206.701,219.525 208.243,220.900 210.012 C 222.275 211.781,223.760 213.715,224.200 214.310 C 224.640 214.905,225.776 216.429,226.723 217.696 L 228.447 220.000 234.996 220.000 L 241.546 220.000 242.373 218.838 C 243.624 217.082,243.682 154.284,242.435 152.744 C 241.688 151.823,241.514 151.800,235.245 151.800 C 226.278 151.800,227.240 149.537,227.169 170.800 C 227.137 180.370,226.987 188.534,226.835 188.943 C 226.461 189.950,225.034 188.472,220.516 182.400 C 218.633 179.870,216.937 177.740,216.746 177.667 C 216.556 177.593,216.400 177.289,216.400 176.991 C 216.400 176.693,215.725 175.656,214.900 174.688 C 214.075 173.720,212.860 172.170,212.200 171.244 C 211.540 170.319,210.550 168.949,210.000 168.202 C 209.450 167.454,208.370 165.925,207.600 164.804 C 206.830 163.684,205.075 161.347,203.700 159.611 C 202.325 157.875,201.192 156.307,201.182 156.127 C 201.172 155.947,200.358 154.900,199.373 153.800 L 197.583 151.800 191.891 151.746 C 188.761 151.716,185.719 151.772,185.131 151.870 M254.400 151.948 C 252.619 152.457,252.588 153.133,252.800 187.115 C 252.974 215.079,253.078 219.278,253.600 219.609 C 253.958 219.835,262.830 219.990,275.630 219.994 L 297.061 220.000 297.930 219.074 C 298.744 218.208,298.800 217.759,298.800 212.110 L 298.800 206.071 297.569 205.036 L 296.339 204.000 283.143 204.000 C 267.255 204.000,268.400 204.360,268.400 199.360 C 268.400 193.455,266.911 194.000,283.033 194.000 L 296.838 194.000 297.819 192.942 C 298.772 191.914,298.800 191.705,298.800 185.756 L 298.800 179.629 297.307 178.614 L 295.814 177.600 282.521 177.600 C 266.992 177.600,268.400 178.131,268.400 172.269 C 268.400 167.432,267.198 167.800,283.000 167.800 C 296.163 167.800,296.204 167.797,297.500 166.873 L 298.800 165.946 298.800 159.635 C 298.800 150.834,301.596 151.815,276.258 151.731 C 264.786 151.694,254.950 151.791,254.400 151.948 " stroke="none" fill="#f9f9f9" fill-rule="evenodd"></path>
  </g>
</svg>